<svg xmlns="http://www.w3.org/2000/svg" viewBox="0 0 256 256" role="img" aria-label="Analysis">
  <rect width="256" height="256" rx="30" fill="#ffffff"/>
  <path fill="#050505" d="M66 56h86c18 0 32 14 32 32v35c0 8-6 14-14 14s-14-6-14-14V89c0-3-2-5-5-5H67c-3 0-5 2-5 5v84c0 3 2 5 5 5h48c8 0 14 6 14 14s-6 14-14 14H66c-18 0-32-14-32-32V88c0-18 14-32 32-32Z"/>
  <path fill="#050505" d="M86 143c-6 0-11-5-11-11V99c0-6 5-11 11-11s11 5 11 11v33c0 6-5 11-11 11Zm38 0c-6 0-11-5-11-11v-18c0-6 5-11 11-11s11 5 11 11v18c0 6-5 11-11 11Z"/>
  <path fill="#050505" d="M170 145c15 0 28 12 28 28s-13 28-28 28-28-12-28-28 13-28 28-28Zm0 21c-4 0-7 3-7 7s3 7 7 7 7-3 7-7-3-7-7-7Z"/>
  <path fill="#050505" d="M189 190c5-5 13-5 18 0l22 22c5 5 5 13 0 18s-13 5-18 0l-22-22c-5-5-5-13 0-18Z"/>
  <path fill="#050505" d="M158 94c6 0 11 5 11 11v19c0 6-5 11-11 11s-11-5-11-11v-19c0-6 5-11 11-11Z"/>
</svg>
